<svg width="13" height="10" fill="none" xmlns="http://www.w3.org/2000/svg"><path opacity=".5" fill-rule="evenodd" clip-rule="evenodd" d="M.967 8.976a7.402 7.402 0 003.775 1.02c4.573 0 7.157-3.563 7.001-6.759.481-.32.899-.72 1.229-1.176-.442.18-.917.303-1.415.358a2.32 2.32 0 001.083-1.257c-.476.26-1.003.45-1.564.551A2.56 2.56 0 009.278.996c-1.59 0-2.758 1.368-2.399 2.79-2.047-.095-3.862-1-5.076-2.374-.645 1.021-.335 2.357.762 3.033a2.614 2.614 0 01-1.116-.284c-.026 1.053.791 2.037 1.976 2.257a2.672 2.672 0 01-1.112.039c.313.903 1.223 1.56 2.3 1.578a5.253 5.253 0 01-3.646.94z" fill="#000"/></svg>