<svg width="71" height="72" fill="none" xmlns="http://www.w3.org/2000/svg"><g filter="url(#filter0_d)"><path fill-rule="evenodd" clip-rule="evenodd" d="M35 16c11.046 0 20 8.954 20 20s-8.954 20-20 20-20-8.954-20-20 8.954-20 20-20z" fill="#EA4C89"/></g><path fill-rule="evenodd" clip-rule="evenodd" d="M34.972 23.948c-6.626 0-11.997 5.374-11.997 12.005 0 6.63 5.371 12.004 11.997 12.004 6.626 0 11.997-5.375 11.997-12.004 0-6.63-5.371-12.006-11.997-12.006zm0 2.087c2.275 0 4.367.78 6.041 2.074-1.203 1.554-2.866 2.783-4.984 3.68a46.177 46.177 0 00-3.488-5.439 9.826 9.826 0 012.43-.315zM30.5 27.114a44.56 44.56 0 013.536 5.383c-2.43.716-5.33 1.084-8.683 1.107a9.944 9.944 0 015.147-6.49zm-5.44 8.838c0-.086.012-.17.014-.255 3.847-.006 7.166-.449 9.947-1.324.233.475.456.953.67 1.433-3.379 1.057-6.163 3.223-8.335 6.482a9.87 9.87 0 01-2.295-6.336zm9.91 9.917c-2.292 0-4.4-.79-6.081-2.103 1.968-3.09 4.482-5.101 7.596-6.03a39.216 39.216 0 012.042 7.463 9.85 9.85 0 01-3.556.67zm5.502-1.674a41.207 41.207 0 00-1.92-6.9c1.875-.264 3.94-.195 6.198.197a9.92 9.92 0 01-4.278 6.703zm-2.72-8.875a41.725 41.725 0 00-.766-1.68c2.308-1.001 4.164-2.36 5.547-4.084a9.88 9.88 0 012.32 5.837c-2.574-.422-4.942-.445-7.1-.073z" fill="#fff"/><defs><filter id="filter0_d" x="-3" y="0" width="72" height="72" filterUnits="userSpaceOnUse" color-interpolation-filters="sRGB"><feFlood flood-opacity="0" result="BackgroundImageFix"/><feColorMatrix in="SourceAlpha" values="0 0 0 0 0 0 0 0 0 0 0 0 0 0 0 0 0 0 127 0"/><feOffset dx="-2"/><feGaussianBlur stdDeviation="8"/><feColorMatrix values="0 0 0 0 0 0 0 0 0 0 0 0 0 0 0 0 0 0 0.16 0"/><feBlend in2="BackgroundImageFix" result="effect1_dropShadow"/><feBlend in="SourceGraphic" in2="effect1_dropShadow" result="shape"/></filter></defs></svg>